<?xml version="1.0" ?><!DOCTYPE svg  PUBLIC '-//W3C//DTD SVG 1.1//EN'  'http://www.w3.org/Graphics/SVG/1.1/DTD/svg11.dtd'><svg height="64px" style="fill-rule:evenodd;clip-rule:evenodd;stroke-linejoin:round;stroke-miterlimit:2;" version="1.1" width="64px" xml:space="preserve" xmlns="http://www.w3.org/2000/svg" xmlns:serif="http://www.serif.com/" xmlns:xlink="http://www.w3.org/1999/xlink"><path d="M18,28l0,0.026c-2.733,0.28 -4.901,2.836 -4.901,5.974c0,3.138 2.168,5.694 4.901,5.974l0,0.026c0,0.828 0.672,1.5 1.5,1.5l0.028,-0c0.156,1.36 0.945,2.642 2.236,3.735c2.044,1.73 5.371,2.999 9.256,3.356c0.018,0.002 0.036,0.003 0.054,0.002c0.459,0.554 1.152,0.907 1.926,0.907c1.38,-0 2.5,-1.12 2.5,-2.5c0,-1.38 -1.12,-2.5 -2.5,-2.5c-0.749,-0 -1.421,0.33 -1.88,0.852c-2.803,-0.295 -5.188,-1.083 -6.665,-2.152c-0.899,-0.651 -1.455,-1.391 -1.455,-2.2c0,-0 0,-12 0,-12c-0,-0.653 -0.417,-1.208 -0.998,-1.414c0.094,-5.05 4.544,-9.378 9.998,-9.378c5.454,0 9.904,4.328 9.998,9.378c-0.581,0.206 -0.998,0.761 -0.998,1.414l0,11c0,0.828 0.672,1.5 1.5,1.5l2,-0c0.828,-0 1.5,-0.672 1.5,-1.5l-0,-0.026c2.721,-0.281 4.879,-2.837 4.879,-5.974c-0,-3.137 -2.158,-5.693 -4.879,-5.974l-0,-0.026c0,-7.446 -6.205,-13.5 -13.937,-13.5c-7.731,0 -14.063,6.055 -14.063,13.5Zm15,17.5c0.828,-0 1.5,0.672 1.5,1.5c-0,0.828 -0.672,1.5 -1.5,1.5c-0.828,-0 -1.5,-0.672 -1.5,-1.5c-0,-0.828 0.672,-1.5 1.5,-1.5Zm-12.463,-4c0.16,1.085 0.836,2.093 1.873,2.971c1.822,1.543 4.738,2.669 8.148,3.067c-0.038,-0.173 -0.058,-0.353 -0.058,-0.538c-0,-0.243 0.035,-0.478 0.1,-0.701c-2.828,-0.352 -5.22,-1.195 -6.731,-2.289c-1.021,-0.739 -1.652,-1.604 -1.822,-2.51l-1.51,-0Zm-1.537,-1.5l0,-11.5c-0,0 2.5,0 2.5,0c0.276,0 0.5,0.224 0.5,0.5l0,11.5c0,-0 -2.5,-0 -2.5,-0c-0.276,-0 -0.5,-0.224 -0.5,-0.5Zm26,-11.5l-0,11.5c-0,0.276 -0.224,0.5 -0.5,0.5c-0,-0 -2,-0 -2,-0c-0.276,-0 -0.5,-0.224 -0.5,-0.5c0,-0 0,-11 0,-11c0,-0.276 0.224,-0.5 0.5,-0.5l2.5,0Zm-27,0.532c-2.207,0.282 -3.901,2.413 -3.901,4.968c0,2.555 1.694,4.686 3.901,4.968l0,-9.936Zm28,0l-0,9.936c2.195,-0.284 3.879,-2.415 3.879,-4.968c-0,-2.553 -1.684,-4.684 -3.879,-4.968Zm-1.01,-1.532c-0.271,-6.672 -5.932,-12 -12.927,-12c-6.996,0 -12.776,5.326 -13.053,12l1.993,0c0.143,-5.538 5.01,-10.292 10.997,-10.292c5.987,0 10.854,4.754 10.997,10.292l1.993,0Z" id="_11-Call-center"/></svg>