<svg xmlns="http://www.w3.org/2000/svg" viewBox="0 0 96 96">
  <path d="M68.42,66.47H37.33a1,1,0,0,1,0-2H67.42V26.86a1.66,1.66,0,0,0-1.66-1.66H20.3a1.66,1.66,0,0,0-1.65,1.66V63.24a1.23,1.23,0,0,0,1.22,1.23h4.8a1,1,0,0,1,0,2h-4.8a3.23,3.23,0,0,1-3.22-3.23V26.86A3.66,3.66,0,0,1,20.3,23.2H65.76a3.66,3.66,0,0,1,3.66,3.66V65.47A1,1,0,0,1,68.42,66.47Z"/><path d="M91.51,66.47H87a1,1,0,1,1,0-2h4.47A.49.49,0,0,0,92,64V52.92a.63.63,0,0,0-.09-.33L82,36.12a.91.91,0,0,0-.77-.44H69.42V64.47h5a1,1,0,0,1,0,2h-6a1,1,0,0,1-1-1V34.68a1,1,0,0,1,1-1H81.27a2.91,2.91,0,0,1,2.49,1.41l9.86,16.47A2.61,2.61,0,0,1,94,52.92V64A2.5,2.5,0,0,1,91.51,66.47Z"/>
  <path d="M86.37,53.87H74.32a1,1,0,0,1-1-1V40.58a1,1,0,0,1,1-1H79a1,1,0,0,1,.85.48l7.36,12.29a1,1,0,0,1,0,1A1,1,0,0,1,86.37,53.87Zm-11.05-2H84.6L78.44,41.58H75.32Z"/>
  <path d="M80.71,72.8A7.34,7.34,0,1,1,88,65.47,7.34,7.34,0,0,1,80.71,72.8Zm0-12.67A5.34,5.34,0,1,0,86,65.47,5.34,5.34,0,0,0,80.71,60.13Z"/>
  <path d="M31,72.8a7.34,7.34,0,1,1,7.33-7.33A7.34,7.34,0,0,1,31,72.8Zm0-12.67a5.34,5.34,0,1,0,5.33,5.34A5.34,5.34,0,0,0,31,60.13Z"/>
  <path d="M11.44,41.58H3a1,1,0,0,1,0-2h8.44a1,1,0,0,1,0,2Z"/><path d="M11.44,53.87H3a1,1,0,0,1,0-2h8.44a1,1,0,1,1,0,2Z"/><path d="M11.44,47.72H5.15a1,1,0,1,1,0-2h6.29a1,1,0,0,1,0,2Z"/>
  <path d="M46,51.16a1,1,0,0,1-.71-.29,3.25,3.25,0,0,0-4.49,0,1,1,0,0,1-1.42,0,1,1,0,0,1,0-1.41,5.17,5.17,0,0,1,7.32,0,1,1,0,0,1,0,1.41A1,1,0,0,1,46,51.16Z"/>
  <path d="M36.71,47.79A1,1,0,0,1,36,47.5a1,1,0,0,1,0-1.42,10,10,0,0,1,14.07,0,1,1,0,0,1-1.42,1.42,8,8,0,0,0-11.24,0A1,1,0,0,1,36.71,47.79Z"/>
  <path d="M33.41,44.49a1,1,0,0,1-.71-.29,1,1,0,0,1,0-1.41,14.63,14.63,0,0,1,20.67,0,1,1,0,0,1,0,1.41,1,1,0,0,1-1.42,0,12.61,12.61,0,0,0-17.83,0A1,1,0,0,1,33.41,44.49Z"/>
</svg>